# File produced by Open Asset Import Library (http://www.assimp.sf.net)
# (assimp v3.1.187496374)

mtllib GJ2 Models.obj.mtl

# 67 vertex positions
v  34.191 -34.412 0
v  34.412 -34.191 0
v  34.049 -34.691 0
v  34.691 -34.049 0
v  35 -34 0
v  35.309 -34.049 0
v  35.588 -34.191 0
v  35.809 -34.412 0
v  35.951 -34.691 0
v  36 -35 0
v  34 -35 0
v  34.191 -35.588 0
v  34.412 -35.809 0
v  34.049 -35.309 0
v  34.691 -35.951 0
v  35.951 -35.309 0
v  35 -36 0
v  35.809 -35.588 0
v  35.309 -35.951 0
v  35.588 -35.809 0
v  37.5 -30.67 3
v  36.294 -30.17 3
v  35 -35 13
v  35 -36 3
v  34.691 -35.951 3
v  35.309 -35.951 3
v  35 -30 3
v  36 -35 3
v  35.9708 -34.816 3
v  35.951 -34.691 3
v  34.191 -35.588 3
v  34.412 -35.809 3
v  31.464 -38.536 3
v  34.049 -35.309 3
v  30.67 -37.5 3
v  32.5 -39.33 3
v  33.706 -39.83 3
v  35 -40 3
v  36.294 -39.83 3
v  35.588 -35.809 3
v  37.5 -39.33 3
v  35.809 -35.588 3
v  38.536 -38.536 3
v  35.951 -35.309 3
v  39.33 -37.5 3
v  39.83 -36.294 3
v  40 -35 3
v  39.83 -33.706 3
v  39.33 -32.5 3
v  35.809 -34.412 3
v  38.536 -31.464 3
v  35.588 -34.191 3
v  35.309 -34.049 3
v  35 -34 3
v  33.706 -30.17 3
v  34.691 -34.049 3
v  32.5 -30.67 3
v  34.412 -34.191 3
v  31.464 -31.464 3
v  34.191 -34.412 3
v  30.67 -32.5 3
v  34.049 -34.691 3
v  30.17 -33.706 3
v  34.0292 -34.816 3
v  34 -35 3
v  30 -35 3
v  30.17 -36.294 3

# 0 UV coordinates

# 45 vertex normals
vn 0 0 -1
vn 0.343134 0.82764 0.444152
vn -0.156619 -0.987659 0
vn 0.156619 -0.987659 0
vn 0.116703 0.888315 0.444158
vn 0.987659 0.156619 0
vn -0.116703 0.888315 0.444158
vn 0.707107 -0.707107 0
vn -0.343134 0.82764 0.444152
vn 0.89121 -0.453591 0
vn -0.545006 0.711116 0.444165
vn -0.711116 0.545006 0.444165
vn 0.987659 -0.156619 0
vn -0.82764 0.343134 0.444152
vn -0.707107 -0.707107 0
vn -0.888315 0.116703 0.444158
vn 0.156619 0.987659 0
vn -0.888315 -0.116703 0.444158
vn -0.453591 -0.89121 0
vn -0.156619 0.987659 0
vn -0.82764 -0.343134 0.444152
vn -0.987659 0.156619 0
vn 0.116703 -0.888315 0.444158
vn -0.711116 -0.545006 0.444165
vn -0.453591 0.89121 0
vn 0.343134 -0.82764 0.444152
vn -0.987659 -0.156619 0
vn -0.545006 -0.711116 0.444165
vn 0.545006 -0.711116 0.444165
vn -0.707107 0.707107 0
vn -0.343134 -0.82764 0.444152
vn -0.89121 -0.453591 0
vn 0.711116 -0.545006 0.444165
vn 0.89121 0.453591 0
vn -0.116703 -0.888315 0.444158
vn -0.89121 0.453591 0
vn 0.82764 -0.343134 0.444152
vn 0.707107 0.707107 0
vn 0.453591 -0.89121 0
vn 0.888315 -0.116703 0.444158
vn 0.888315 0.116703 0.444158
vn 0.453591 0.89121 0
vn 0.82764 0.343134 0.444152
vn 0.711116 0.545006 0.444165
vn 0.545006 0.711116 0.444165

# Mesh '<STL_BINARY>' with 130 faces
g <STL_BINARY>
usemtl DefaultMaterial
f  1//1 2//1 3//1
f  3//1 2//1 4//1
f  3//1 4//1 5//1
f  3//1 5//1 6//1
f  3//1 6//1 7//1
f  3//1 7//1 8//1
f  3//1 8//1 9//1
f  3//1 9//1 10//1
f  3//1 10//1 11//1
f  12//1 10//1 13//1
f  14//1 10//1 12//1
f  15//1 13//1 10//1
f  11//1 10//1 14//1
f  10//1 16//1 15//1
f  17//1 15//1 16//1
f  18//1 19//1 16//1
f  17//1 16//1 19//1
f  20//1 19//1 18//1
f  21//2 22//2 23//2
f  17//3 24//3 15//3
f  24//3 25//3 15//3
f  24//4 17//4 19//4
f  19//4 26//4 24//4
f  27//5 23//5 22//5
f  28//6 10//6 29//6
f  10//6 9//6 29//6
f  30//6 29//6 9//6
f  31//1 32//1 33//1
f  34//1 31//1 35//1
f  33//1 35//1 31//1
f  36//1 33//1 32//1
f  32//1 25//1 36//1
f  37//1 36//1 25//1
f  37//1 25//1 24//1
f  37//1 24//1 38//1
f  26//1 39//1 24//1
f  38//1 24//1 39//1
f  26//1 40//1 41//1
f  41//1 39//1 26//1
f  40//1 42//1 43//1
f  43//1 41//1 40//1
f  42//1 44//1 45//1
f  45//1 43//1 42//1
f  46//1 45//1 44//1
f  44//1 28//1 46//1
f  47//1 46//1 28//1
f  48//1 47//1 28//1
f  28//1 29//1 48//1
f  29//1 30//1 48//1
f  49//1 48//1 30//1
f  30//1 50//1 49//1
f  51//1 49//1 50//1
f  50//1 52//1 51//1
f  21//1 51//1 52//1
f  52//1 53//1 21//1
f  22//1 21//1 53//1
f  53//1 54//1 22//1
f  27//1 22//1 54//1
f  27//1 54//1 55//1
f  56//1 55//1 54//1
f  57//1 55//1 56//1
f  56//1 58//1 57//1
f  59//1 57//1 58//1
f  58//1 60//1 59//1
f  59//1 60//1 61//1
f  62//1 61//1 60//1
f  61//1 62//1 63//1
f  64//1 63//1 62//1
f  63//1 65//1 66//1
f  65//1 63//1 64//1
f  66//1 65//1 67//1
f  34//1 67//1 65//1
f  67//1 34//1 35//1
f  55//7 23//7 27//7
f  18//8 42//8 40//8
f  20//8 18//8 40//8
f  55//9 57//9 23//9
f  42//10 18//10 44//10
f  16//10 44//10 18//10
f  57//11 59//11 23//11
f  59//12 61//12 23//12
f  10//13 28//13 44//13
f  10//13 44//13 16//13
f  61//14 63//14 23//14
f  12//15 13//15 31//15
f  32//15 31//15 13//15
f  63//16 66//16 23//16
f  53//17 5//17 54//17
f  6//17 5//17 53//17
f  66//18 67//18 23//18
f  15//19 25//19 32//19
f  15//19 32//19 13//19
f  4//20 56//20 54//20
f  4//20 54//20 5//20
f  67//21 35//21 23//21
f  65//22 64//22 11//22
f  62//22 3//22 64//22
f  11//22 64//22 3//22
f  39//23 23//23 38//23
f  35//24 33//24 23//24
f  4//25 2//25 58//25
f  4//25 58//25 56//25
f  41//26 23//26 39//26
f  14//27 34//27 11//27
f  65//27 11//27 34//27
f  33//28 36//28 23//28
f  43//29 23//29 41//29
f  60//30 58//30 1//30
f  2//30 1//30 58//30
f  36//31 37//31 23//31
f  34//32 14//32 31//32
f  12//32 31//32 14//32
f  45//33 23//33 43//33
f  30//34 9//34 50//34
f  8//34 50//34 9//34
f  38//35 23//35 37//35
f  1//36 3//36 62//36
f  1//36 62//36 60//36
f  46//37 23//37 45//37
f  50//38 8//38 52//38
f  7//38 52//38 8//38
f  19//39 20//39 40//39
f  19//39 40//39 26//39
f  47//40 23//40 46//40
f  48//41 23//41 47//41
f  53//42 52//42 6//42
f  7//42 6//42 52//42
f  49//43 23//43 48//43
f  51//44 23//44 49//44
f  51//45 21//45 23//45

